<?xml version="1.0" encoding="UTF-8"?>
<svg version="1.1" xmlns="http://www.w3.org/2000/svg" width="1080" height="1080">
<path d="M0 0 C356.4 0 712.8 0 1080 0 C1080 356.4 1080 712.8 1080 1080 C723.6 1080 367.2 1080 0 1080 C0 723.6 0 367.2 0 0 Z " fill="#FEFEFE" transform="translate(0,0)"/>
<path d="M0 0 C0.71961914 0.24089355 1.43923828 0.48178711 2.18066406 0.72998047 C10.90282608 3.67890191 19.39056747 6.92458047 27.5625 11.1875 C28.50017212 11.66848145 28.50017212 11.66848145 29.45678711 12.15917969 C32.89735287 14.03611605 34.44379918 15.4484336 36 19 C34.89096313 19.029729 34.89096313 19.029729 33.75952148 19.06005859 C-7.88291868 20.23272007 -45.06510804 29.64749579 -75.59228516 59.63183594 C-76.83146069 60.83619592 -78.10657476 62.00334275 -79.38671875 63.1640625 C-100.3755252 82.68327568 -114.74661464 115.02926317 -116.12402344 143.56982422 C-117.26940631 185.26317494 -104.49017863 219.89609687 -75.703125 250.328125 C-57.18568753 268.63148805 -32.39795776 281.22380873 -7.1875 287.3125 C-6.53080322 287.47202148 -5.87410645 287.63154297 -5.19750977 287.79589844 C5.56776379 290.21698267 16.57739348 290.237608 27.5625 290.25 C28.2669928 290.25133942 28.9714856 290.25267883 29.69732666 290.25405884 C43.59525502 290.24834018 56.83315561 289.17120906 70.0546875 284.55078125 C72 284 72 284 76 284 C74.43840012 288.68479963 70.7159444 290.88283337 67 294 C66.15308594 294.75667969 65.30617188 295.51335937 64.43359375 296.29296875 C45.70480381 312.6774039 22.72799266 322.50569268 0 332 C0.23904053 333.1612439 0.23904053 333.1612439 0.48291016 334.34594727 C1.40791714 339.09370499 2.22666675 344.35964108 0.12890625 348.875 C-2.7788295 352.68842393 -6.5064812 354.64914038 -11 356 C-13.89049369 356.37501415 -16.71444835 356.37677897 -19.625 356.3125 C-20.73101562 356.31733398 -20.73101562 356.31733398 -21.859375 356.32226562 C-24.88902515 356.29240348 -27.45364195 356.24314533 -30.24673462 355.00013733 C-33.84408543 353.69338177 -37.23591925 353.70001529 -41.01318359 353.69702148 C-41.81004578 353.68858215 -42.60690796 353.68014282 -43.42791748 353.67144775 C-46.08476404 353.64554429 -48.74149609 353.63344244 -51.3984375 353.62109375 C-53.30303741 353.60484299 -55.20762953 353.58765574 -57.11221313 353.56959534 C-62.18105167 353.52374492 -67.2499037 353.4891783 -72.31884766 353.45739746 C-80.17017474 353.40628042 -88.02138015 353.33775782 -95.87258911 353.27124214 C-97.90910364 353.25431629 -99.94562327 353.23799414 -101.98214722 353.22224236 C-114.55194392 353.12495203 -127.11936314 352.97695738 -139.6875 352.74829102 C-167.50928153 352.24456943 -195.31407635 351.91735816 -223.140625 351.97265625 C-224.60489019 351.97532719 -226.06915537 351.97799685 -227.53342056 351.98066521 C-240.05904617 352.00456445 -252.58463218 352.04140241 -265.11019492 352.08749622 C-272.57298704 352.1149119 -280.0357463 352.13670459 -287.4985826 352.14750665 C-291.66843265 352.15398611 -295.83811798 352.16938057 -300.00791121 352.19182408 C-303.15532643 352.20624527 -306.30275183 352.20772438 -309.45019531 352.21118164 C-311.15102516 352.22432404 -311.15102516 352.22432404 -312.88621521 352.23773193 C-313.91837662 352.23642776 -314.95053802 352.2351236 -316.01397705 352.23377991 C-316.91017384 352.23692231 -317.80637062 352.24006472 -318.72972488 352.24330235 C-321 352 -321 352 -324 350 C-323.93422445 346.71122246 -323.81341797 344.03798122 -321.7265625 341.375 C-314.35181176 334.72733736 -305.72124582 331.38579462 -296 330 C-296.144375 328.845 -296.28875 327.69 -296.4375 326.5 C-296.41191711 321.67336186 -294.486505 319.28374089 -291.2109375 315.89453125 C-285.18348031 310.72966069 -278.86287411 306.83294969 -270.8125 306.9375 C-269.91144531 306.94652344 -269.01039063 306.95554687 -268.08203125 306.96484375 C-267.05142578 306.98224609 -267.05142578 306.98224609 -266 307 C-266.06960938 306.3709375 -266.13921875 305.741875 -266.2109375 305.09375 C-266.59398116 299.03801213 -265.8869683 295.40762248 -261.91015625 290.75390625 C-258.63321366 287.74501622 -255.03579436 285.8157399 -251 284 C-250.071875 283.566875 -249.14375 283.13375 -248.1875 282.6875 C-237.92200337 280.47337328 -228.03180051 282.69761955 -218 285 C-217.88785156 283.95714844 -217.77570313 282.91429687 -217.66015625 281.83984375 C-215.73579702 270.64667734 -207.88473023 262.47598114 -199 256 C-199.66321071 252.72850445 -200.86853576 250.16325218 -202.4765625 247.24609375 C-217.15998589 220.1594132 -225.43776329 193.6386188 -225.26074219 162.66333008 C-225.24998689 160.43478323 -225.26073797 158.20703897 -225.2734375 155.97851562 C-225.31767075 111.93825202 -206.62104576 74.69886789 -177 43 C-176.17886719 42.113125 -175.35773438 41.22625 -174.51171875 40.3125 C-131.25439226 -4.80328941 -58.46048463 -19.90283915 0 0 Z " fill="#FF6E4E" transform="translate(325,366)"/>
<path d="M0 0 C2.97293633 1.91716845 4.71663154 3.72421265 6.62890625 6.6953125 C6.37890625 10.5078125 6.37890625 10.5078125 5.62890625 13.6953125 C6.61890625 14.0253125 7.60890625 14.3553125 8.62890625 14.6953125 C8.96921875 13.73625 8.96921875 13.73625 9.31640625 12.7578125 C10.62890625 10.6953125 10.62890625 10.6953125 12.86328125 10.0859375 C24.0644531 8.50385108 34.49498105 9.99922119 44.06640625 16.3203125 C48.40608611 19.89737079 50.90430248 24.38213927 52.62890625 29.6953125 C52.56640625 32.8203125 52.56640625 32.8203125 51.62890625 35.6953125 C51.26742952 37.15185111 50.91354443 38.61029016 50.56640625 40.0703125 C50.25703125 41.2665625 49.94765625 42.4628125 49.62890625 43.6953125 C52.94218143 41.91763682 52.94218143 41.91763682 53.87890625 38.1953125 C55.62890625 34.6953125 55.62890625 34.6953125 58.75390625 33.2578125 C68.38363669 31.8599484 76.69787838 32.59913439 84.96484375 38.30859375 C88.88555415 41.59528592 92.54479782 44.98341518 94.62890625 49.6953125 C94.64441143 53.42689183 94.23113193 57.01649913 93.62890625 60.6953125 C96.815034 59.975921 96.815034 59.975921 98.29296875 57.1796875 C100.62890625 54.6953125 100.62890625 54.6953125 104.46484375 53.9609375 C105.97727129 53.91825139 107.49117852 53.91508011 109.00390625 53.9453125 C110.19850464 53.9596936 110.19850464 53.9596936 111.41723633 53.97436523 C121.23794771 54.40732872 129.37628984 58.41478913 136.69140625 65.0078125 C141.16843578 70.064356 144.20516713 75.82330289 145.19140625 82.5078125 C144.39477287 87.02206832 142.48763408 89.34933718 138.81640625 92.0078125 C135.10479778 93.17431802 131.15405966 93.45788921 127.62890625 91.6953125 C124.80081308 91.47289556 121.99331611 91.31306533 119.16015625 91.1953125 C117.78458557 91.1344043 117.78458557 91.1344043 116.38122559 91.07226562 C102.43645733 90.48414125 88.48246979 90.12965012 74.53055191 89.75922775 C72.09940155 89.69452729 69.6682754 89.62897163 67.2371521 89.56326294 C42.25976356 88.89043487 17.28387954 88.38316152 -7.69995117 88.02172852 C-20.29053098 87.83824088 -32.8731113 87.59208459 -45.4588623 87.20114136 C-63.18600522 86.65668219 -80.91236067 86.58562966 -98.64645004 86.57237625 C-100.78014265 86.57033966 -102.91382637 86.56659074 -105.04751587 86.56246948 C-124.52393241 86.51335543 -124.52393241 86.51335543 -143.96899414 87.47265625 C-149.93378514 87.86303224 -155.89630823 87.8012048 -161.87109375 87.7578125 C-163.08667969 87.75330078 -164.30226562 87.74878906 -165.5546875 87.74414062 C-168.493546 87.73257032 -171.43228992 87.71627631 -174.37109375 87.6953125 C-173.60742188 83.89501953 -173.60742188 83.89501953 -171.48046875 82.09765625 C-170.701875 81.61425781 -169.92328125 81.13085938 -169.12109375 80.6328125 C-168.30382812 80.12105469 -167.4865625 79.60929688 -166.64453125 79.08203125 C-165.89429688 78.62441406 -165.1440625 78.16679688 -164.37109375 77.6953125 C-163.07171875 76.8290625 -163.07171875 76.8290625 -161.74609375 75.9453125 C-156.90179012 73.39567901 -151.83079708 71.9983291 -146.37109375 72.6953125 C-145.44296875 73.3553125 -144.51484375 74.0153125 -143.55859375 74.6953125 C-139.36900842 77.32407192 -136.18080153 77.08008912 -131.37109375 76.6953125 C-132.03496094 76.62054687 -132.69882813 76.54578125 -133.3828125 76.46875 C-141.50483012 75.25934008 -141.50483012 75.25934008 -144.55859375 71.9453125 C-146.37109375 68.6953125 -146.37109375 68.6953125 -146.62109375 65.8203125 C-143.70213428 58.52291382 -138.2131534 53.73223338 -131.12109375 50.54296875 C-125.52409829 48.8177585 -119.57351097 48.43702715 -114.0546875 50.60546875 C-112.12109375 51.6953125 -112.12109375 51.6953125 -109.37109375 53.6953125 C-111.32981396 50.1707973 -111.32981396 50.1707973 -114.05859375 47.2578125 C-115.37109375 45.6953125 -115.37109375 45.6953125 -115.80859375 42.8828125 C-115.08705379 37.62587854 -112.28520091 34.33290271 -108.37109375 30.9453125 C-100.49974065 25.04179768 -91.44413293 24.91437757 -81.89453125 25.96875 C-75.20695629 27.09396103 -69.41494166 29.68487875 -63.37109375 32.6953125 C-65.23675863 29.06737252 -65.23675863 29.06737252 -68.37109375 26.6953125 C-69.38249989 20.1934159 -66.85524975 16.52096019 -63.23046875 11.20703125 C-61.13133352 8.3714347 -59.05800288 5.98901542 -56.37109375 3.6953125 C-55.83355469 3.21707031 -55.29601562 2.73882813 -54.7421875 2.24609375 C-37.92425557 -11.69277677 -18.32036216 -8.92843216 0 0 Z " fill="#FFFCFB" transform="translate(177.37109375,626.3046875)"/>
<path d="M0 0 C9.32797263 -0.0930829 18.65578296 -0.16395774 27.98412037 -0.20724869 C32.3166487 -0.22803651 36.64885698 -0.25619092 40.98120117 -0.30175781 C45.16985361 -0.34553275 49.35820011 -0.36920315 53.54706383 -0.37950897 C55.13731381 -0.38684404 56.72754891 -0.40116625 58.31766701 -0.42292023 C70.28331973 -0.5799626 81.22024907 0.20579642 90.2734375 8.9609375 C95.46339369 15.09025228 97.84614669 21.27771422 97.4140625 29.328125 C96.29533121 36.54710805 93.41109083 41.33119626 87.68359375 45.80859375 C86.1414818 46.89987947 84.57189558 47.95206961 83 49 C84.175625 49.495 85.35125 49.99 86.5625 50.5 C92.46323881 53.43464808 97.67875169 58.74795856 100 65 C100.24580497 67.61525056 100.38106985 70.07352076 100.375 72.6875 C100.37338867 73.40139893 100.37177734 74.11529785 100.37011719 74.85083008 C100.23628261 80.62605464 99.13145137 85.0775782 96 90 C95.484375 90.886875 94.96875 91.77375 94.4375 92.6875 C86.90930344 99.8296352 78.55545933 102.16594648 68.45581055 102.11352539 C67.3428083 102.11374443 67.3428083 102.11374443 66.20732117 102.1139679 C63.7670901 102.11327404 61.3269364 102.1055064 58.88671875 102.09765625 C57.18992657 102.0957902 55.49313385 102.09436718 53.79634094 102.09336853 C49.3395335 102.0895581 44.88275887 102.07974043 40.42596436 102.06866455 C35.87447554 102.0584187 31.32298141 102.05386412 26.77148438 102.04882812 C17.84764187 102.03811681 8.92382367 102.02105813 0 102 C0 101.34 0 100.68 0 100 C0.99 99.505 0.99 99.505 2 99 C2 67.32 2 35.64 2 3 C1.34 2.67 0.68 2.34 0 2 C0 1.34 0 0.68 0 0 Z " fill="#030303" transform="translate(536,373)"/>
<path d="M0 0 C7.37216853 -0.09325368 14.74420699 -0.16404243 22.11684895 -0.20724869 C25.54141087 -0.22800031 28.96556517 -0.25608503 32.38989258 -0.30175781 C36.33930343 -0.35409597 40.28855729 -0.37304794 44.23828125 -0.390625 C45.45018631 -0.41127014 46.66209137 -0.43191528 47.91072083 -0.45318604 C60.04074152 -0.45634431 69.55838801 2.89211816 78.5625 11.125 C85.89333048 18.6828916 89.29426186 28.84846263 89.25 39.25 C89.02910207 53.26321233 86.53571677 65.34061132 76.63671875 75.73046875 C68.86075342 82.42355891 60.30684577 85.13644083 50.17822266 85.11352539 C49.05751373 85.11344986 47.93680481 85.11337433 46.78213501 85.11329651 C45.58817108 85.10813522 44.39420715 85.10297394 43.1640625 85.09765625 C41.31232925 85.09553383 41.31232925 85.09553383 39.42318726 85.09336853 C35.49043325 85.08778272 31.55773672 85.07523275 27.625 85.0625 C24.95442792 85.05691912 22.28385637 85.05292058 19.61328125 85.04882812 C13.07550131 85.03781792 6.53775476 85.02109385 0 85 C0 84.34 0 83.68 0 83 C0.99 83 1.98 83 3 83 C2.91574298 72.47332832 2.82091726 61.9468106 2.71247292 51.42035866 C2.66245646 46.53287233 2.61612707 41.64540818 2.578125 36.7578125 C2.54133955 32.04392757 2.49499835 27.33022588 2.44193649 22.61649704 C2.42335658 20.81514057 2.40826202 19.01374477 2.39665604 17.21232986 C2.37985482 14.69556022 2.35083548 12.17921353 2.31884766 9.66259766 C2.31668747 8.91237839 2.31452728 8.16215912 2.31230164 7.38920593 C2.37355765 3.23964898 2.37355765 3.23964898 0 0 Z " fill="#FFFDFC" transform="translate(808,585)"/>
<path d="M0 0 C9.31070173 -0.09314292 18.62124029 -0.1639877 27.9323082 -0.20724869 C32.25696147 -0.22802365 36.58129335 -0.25615384 40.90576172 -0.30175781 C45.08793496 -0.34557953 49.26980127 -0.36921276 53.45218658 -0.37950897 C55.03881911 -0.3868358 56.62543699 -0.40114126 58.21193695 -0.42292023 C70.1750146 -0.58044566 81.61413153 0.30382114 91.24609375 8.2265625 C97.36787864 14.41651871 100.03617434 20.42244563 100.375 29.0625 C100.28607974 36.37372142 98.06274384 43.3043376 93.35546875 48.984375 C87.15570494 54.63833568 81.1623599 56.15193638 73 56 C78.5089363 65.48830338 84.11997518 74.90861714 89.875 84.25 C90.4218042 85.14227295 90.9686084 86.0345459 91.53198242 86.95385742 C95.91520075 94.99973494 95.91520075 94.99973494 103 100 C103 100.66 103 101.32 103 102 C94.42 102 85.84 102 77 102 C77 101.34 77 100.68 77 100 C78.32 100 79.64 100 81 100 C79.76535831 95.06259252 78.21034556 91.26430101 75.48046875 86.91015625 C74.78759766 85.79576172 74.09472656 84.68136719 73.38085938 83.53320312 C72.64994128 82.37617464 71.91882024 81.21927434 71.1875 80.0625 C70.46732298 78.90998974 69.74791589 77.75699798 69.02929688 76.60351562 C67.69148425 74.46128283 66.35033809 72.3211252 65.00463867 70.18383789 C63 67 63 67 61.96031189 64.86740112 C59.85867492 60.68802652 59.85867492 60.68802652 56.05445862 58.270401 C53.66413141 57.97689563 51.38773694 57.94299232 48.98046875 58 C48.21883423 57.98839844 47.45719971 57.97679687 46.67248535 57.96484375 C43.84430833 57.93331792 41.01570092 57.97069578 38.1875 58 C31.855625 58 25.52375 58 19 58 C19.495 78.295 19.495 78.295 20 99 C21.485 99.495 21.485 99.495 23 100 C23 100.66 23 101.32 23 102 C15.41 102 7.82 102 0 102 C0 101.34 0 100.68 0 100 C1.98 99.505 1.98 99.505 4 99 C4 67.32 4 35.64 4 3 C2.68 2.67 1.36 2.34 0 2 C0 1.34 0 0.68 0 0 Z " fill="#040404" transform="translate(489,568)"/>
<path d="M0 0 C7.59 0 15.18 0 23 0 C23 0.66 23 1.32 23 2 C22.01 2 21.02 2 20 2 C23.21037718 11.41095082 26.84866238 20.45741959 31 29.5 C32.14659949 32.021915 33.28843047 34.54597606 34.4296875 37.0703125 C34.72100555 37.71368561 35.01232361 38.35705872 35.31246948 39.01992798 C38.66319692 46.43685907 41.89844151 53.90340798 45.125 61.375 C45.40053711 62.01252197 45.67607422 62.65004395 45.95996094 63.30688477 C46.74725053 65.12885056 47.53379437 66.95113854 48.3203125 68.7734375 C48.7937207 69.86495117 49.26712891 70.95646484 49.75488281 72.08105469 C50.50186367 73.83221216 51.23127461 75.59125219 51.92480469 77.36425781 C52.71229523 79.44712701 52.71229523 79.44712701 54 82 C55.485 82.495 55.485 82.495 57 83 C57 83.66 57 84.32 57 85 C50.4 85 43.8 85 37 85 C37 84.34 37 83.68 37 83 C37.99 83 38.98 83 40 83 C38.26968215 77.45511781 36.27791433 72.18755129 33.76953125 66.9453125 C33 65 33 65 33 62 C18.81 62 4.62 62 -10 62 C-10.99 64.97 -11.98 67.94 -13 71 C-13.53625 72.2375 -14.0725 73.475 -14.625 74.75 C-15.81410482 77.56061138 -16.54523712 79.99856501 -17 83 C-16.01 83 -15.02 83 -14 83 C-14 83.66 -14 84.32 -14 85 C-19.94 85 -25.88 85 -32 85 C-32 84.34 -32 83.68 -32 83 C-30.515 82.01 -30.515 82.01 -29 81 C-27.71328694 78.35510021 -26.57202767 75.75568986 -25.48046875 73.03125 C-25.14488953 72.21532883 -24.8093103 71.39940765 -24.46356201 70.5587616 C-23.36261028 67.87606456 -22.27488027 65.1882234 -21.1875 62.5 C-20.4318792 60.64916526 -19.67544321 58.79866314 -18.91821289 56.94848633 C-17.75826713 54.11273015 -16.5995039 51.276524 -15.44468689 48.43867493 C-12.91818335 42.23010589 -10.35586276 36.03769325 -7.765625 29.85546875 C-6.79729819 27.53664231 -5.82954207 25.21757854 -4.86196899 22.8984375 C-4.24781116 21.4296326 -3.63159323 19.96168733 -3.01327515 18.49462891 C-2.15724231 16.46132166 -1.31004721 14.4245464 -0.46484375 12.38671875 C0.013479 11.24420654 0.49180176 10.10169434 0.98461914 8.92456055 C2.21865687 5.88618013 2.21865687 5.88618013 2 2 C1.34 1.34 0.68 0.68 0 0 Z " fill="#050505" transform="translate(736,585)"/>
<path d="M0 0 C7.37216853 -0.09325368 14.74420699 -0.16404243 22.11684895 -0.20724869 C25.54141087 -0.22800031 28.96556517 -0.25608503 32.38989258 -0.30175781 C36.33930343 -0.35409597 40.28855729 -0.37304794 44.23828125 -0.390625 C45.45018631 -0.41127014 46.66209137 -0.43191528 47.91072083 -0.45318604 C60.04074152 -0.45634431 69.55838801 2.89211816 78.5625 11.125 C85.89333048 18.6828916 89.29426186 28.84846263 89.25 39.25 C89.02910207 53.26321233 86.53571677 65.34061132 76.63671875 75.73046875 C68.86075342 82.42355891 60.30684577 85.13644083 50.17822266 85.11352539 C49.05751373 85.11344986 47.93680481 85.11337433 46.78213501 85.11329651 C45.58817108 85.10813522 44.39420715 85.10297394 43.1640625 85.09765625 C41.31232925 85.09553383 41.31232925 85.09553383 39.42318726 85.09336853 C35.49043325 85.08778272 31.55773672 85.07523275 27.625 85.0625 C24.95442792 85.05691912 22.28385637 85.05292058 19.61328125 85.04882812 C13.07550131 85.03781792 6.53775476 85.02109385 0 85 C0 84.34 0 83.68 0 83 C0.99 83 1.98 83 3 83 C2.91574298 72.47332832 2.82091726 61.9468106 2.71247292 51.42035866 C2.66245646 46.53287233 2.61612707 41.64540818 2.578125 36.7578125 C2.54133955 32.04392757 2.49499835 27.33022588 2.44193649 22.61649704 C2.42335658 20.81514057 2.40826202 19.01374477 2.39665604 17.21232986 C2.37985482 14.69556022 2.35083548 12.17921353 2.31884766 9.66259766 C2.31668747 8.91237839 2.31452728 8.16215912 2.31230164 7.38920593 C2.37355765 3.23964898 2.37355765 3.23964898 0 0 Z M15 10 C15 31.45 15 52.9 15 75 C21.0225 75.0825 27.045 75.165 33.25 75.25 C35.12461914 75.28641602 36.99923828 75.32283203 38.93066406 75.36035156 C49.74033427 75.48323041 60.37979545 75.30312379 69 67.875 C77.2630624 58.52363182 77.70832418 45.82421472 77.17919922 33.98339844 C76.79670068 29.74985871 75.36003755 26.48142185 73 23 C72.56429687 22.35675781 72.12859375 21.71351563 71.6796875 21.05078125 C68.19909348 16.51459724 64.29010897 14.05186212 59 12 C58.14970215 11.65702881 57.2994043 11.31405762 56.42333984 10.96069336 C52.20838255 9.77784805 48.45296287 9.74831416 44.1015625 9.8046875 C43.36059326 9.80670166 42.61962402 9.80871582 41.85620117 9.81079102 C39.11240365 9.82118312 36.36869501 9.84910528 33.625 9.875 C27.47875 9.91625 21.3325 9.9575 15 10 Z " fill="#FF7050" transform="translate(808,585)"/>
<path d="M0 0 C1.58844727 -0.01063477 1.58844727 -0.01063477 3.20898438 -0.02148438 C16.11856712 0.08191955 27.98870503 4.1936057 37.6875 12.9375 C46.29606608 22.09630432 49.77606276 33.40004958 49.6484375 45.703125 C48.97706985 57.58881902 44.88362953 67.53016025 36.1875 75.75 C25.7001491 84.46310895 13.5342551 88.01771879 0.0625 87.875 C-0.94973633 87.86670166 -1.96197266 87.85840332 -3.00488281 87.84985352 C-16.03564657 87.55522489 -26.99005397 83.46101407 -36.6640625 74.48828125 C-40.56290223 70.26592077 -43.42385294 65.76891401 -45.5625 60.4375 C-45.91828125 59.58671875 -46.2740625 58.7359375 -46.640625 57.859375 C-49.51132407 47.20372929 -49.29665466 32.84516385 -44.234375 22.9765625 C-33.85806246 7.21814392 -18.69211689 -0.35397411 0 0 Z M-29.875 22.6875 C-35.63733997 30.0549486 -37.29826584 37.63185561 -37.015625 46.8984375 C-35.97228821 55.04725764 -32.59325539 62.80879497 -26.5625 68.4375 C-15.19911438 76.5256743 -4.47644798 79.14725686 9.4296875 76.96875 C19.21480861 74.64027925 27.70608803 69.82585791 33.4375 61.4375 C38.12826399 53.34997587 38.36343136 44.56972494 37.4375 35.4375 C34.83540126 26.87639651 29.87354127 20.3750314 22.4375 15.4375 C19.18096129 13.79727565 15.92256181 12.50288159 12.4375 11.4375 C11.83808594 11.24542969 11.23867188 11.05335938 10.62109375 10.85546875 C-4.36878448 7.98620762 -19.26145284 11.40894362 -29.875 22.6875 Z " fill="#050505" transform="translate(794.5625,388.5625)"/>
<path d="M0 0 C2.97834609 1.11974799 5.37880738 1.11852319 8.53515625 0.953125 C7.10302113 4.88969742 5.23183471 8.24243856 2.97265625 11.765625 C2.35261719 12.74144531 1.73257813 13.71726562 1.09375 14.72265625 C0.57941406 15.45871094 0.06507813 16.19476563 -0.46484375 16.953125 C-0.79484375 16.953125 -1.12484375 16.953125 -1.46484375 16.953125 C-1.68011719 16.03015625 -1.89539063 15.1071875 -2.1171875 14.15625 C-3.79410484 10.17053343 -5.1608563 9.50057255 -9.02734375 7.703125 C-10.01863281 7.22359375 -11.00992188 6.7440625 -12.03125 6.25 C-23.98022305 1.73684977 -39.31087996 0.35312752 -51.33984375 5.140625 C-59.78781343 9.39431437 -64.99038588 14.89675957 -68.58203125 23.6875 C-70.85537959 32.09687705 -71.08103902 43.28954327 -66.78125 51.03515625 C-60.18939311 60.63931569 -52.81215741 65.18548752 -41.46484375 67.953125 C-29.13931071 69.25714884 -19.67938576 66.940237 -8.46484375 61.953125 C-6.81484375 61.293125 -5.16484375 60.633125 -3.46484375 59.953125 C-3.46484375 55.333125 -3.46484375 50.713125 -3.46484375 45.953125 C-7.09105529 46.03974785 -10.7146781 46.14658301 -14.33984375 46.265625 C-15.88865234 46.29946289 -15.88865234 46.29946289 -17.46875 46.33398438 C-18.94794922 46.3871582 -18.94794922 46.3871582 -20.45703125 46.44140625 C-21.3682373 46.46759033 -22.27944336 46.49377441 -23.21826172 46.52075195 C-24.33031982 46.73477661 -24.33031982 46.73477661 -25.46484375 46.953125 C-26.12484375 47.943125 -26.78484375 48.933125 -27.46484375 49.953125 C-28.12484375 49.953125 -28.78484375 49.953125 -29.46484375 49.953125 C-29.46484375 44.013125 -29.46484375 38.073125 -29.46484375 31.953125 C-28.80484375 31.953125 -28.14484375 31.953125 -27.46484375 31.953125 C-26.80484375 32.943125 -26.14484375 33.933125 -25.46484375 34.953125 C-22.77699558 35.29096596 -20.30770125 35.44204744 -17.61328125 35.46484375 C-16.45223373 35.49177055 -16.45223373 35.49177055 -15.26773071 35.51924133 C-12.79182408 35.57348892 -10.31611172 35.60728509 -7.83984375 35.640625 C-6.16273329 35.67378546 -4.48564852 35.70827393 -2.80859375 35.74414062 C1.30601973 35.83172893 5.4197367 35.8916692 9.53515625 35.953125 C9.20515625 43.873125 8.87515625 51.793125 8.53515625 59.953125 C9.19515625 59.953125 9.85515625 59.953125 10.53515625 59.953125 C10.42578125 61.67578125 10.42578125 61.67578125 9.53515625 63.953125 C7.46922561 65.62199094 5.52851888 67.00479145 3.28515625 68.390625 C2.6627002 68.78314453 2.04024414 69.17566406 1.39892578 69.58007812 C-13.63648162 78.76606296 -30.39192921 81.42424981 -47.796875 78.57080078 C-60.04594404 75.5947527 -71.13699059 67.67143016 -77.7109375 56.9140625 C-83.37554165 46.16583923 -84.13932259 33.76018417 -81.33984375 22.015625 C-77.76458792 10.90738827 -69.73320355 1.91922399 -59.46484375 -3.421875 C-40.45528753 -12.66837109 -18.16176082 -9.31948159 0 0 Z " fill="#060606" transform="translate(938.46484375,397.046875)"/>
<path d="M0 0 C3.75252669 1.02258635 6.43263616 0.64608191 10.2109375 -0.125 C8.27469452 6.07977864 5.95484609 11.98325719 3.2109375 17.875 C2.97375 17.25882813 2.7365625 16.64265625 2.4921875 16.0078125 C-0.41174353 11.17382975 -7.9386133 9.94530923 -13.1640625 8.625 C-24.2533638 6.68877279 -39.02257774 5.44642775 -48.7890625 11.875 C-50.73048411 13.44272074 -52.17433059 14.94773933 -53.7890625 16.875 C-54.1190625 17.205 -54.4490625 17.535 -54.7890625 17.875 C-55.08021075 23.49314039 -55.08021075 23.49314039 -53.7890625 28.875 C-51.81096387 29.97915102 -51.81096387 29.97915102 -49.4140625 30.5625 C-48.62257813 30.79324219 -47.83109375 31.02398438 -47.015625 31.26171875 C-46.28085937 31.46410156 -45.54609375 31.66648437 -44.7890625 31.875 C-43.3040625 32.37 -43.3040625 32.37 -41.7890625 32.875 C-40.26590499 32.9995933 -38.73851677 33.07599524 -37.2109375 33.12109375 C-35.85101685 33.16810425 -35.85101685 33.16810425 -34.46362305 33.21606445 C-33.49851807 33.24788818 -32.53341309 33.27971191 -31.5390625 33.3125 C-0.33887818 34.5824969 -0.33887818 34.5824969 10.2109375 44.875 C13.66851116 50.12056551 12.64984702 56.87428386 12.2109375 62.875 C10.90014842 68.8042725 7.17090377 73.80595427 2.23828125 77.25390625 C-7.14725413 82.79915202 -16.29454295 84.41463951 -27.1015625 84.3125 C-28.20371094 84.30637695 -29.30585937 84.30025391 -30.44140625 84.29394531 C-40.66123122 84.09764253 -48.44539066 81.9574482 -57.6640625 77.5625 C-61.8154333 75.59040703 -64.37280113 75.7474439 -68.7890625 76.875 C-68.18639465 72.36772353 -66.42306456 69.0162037 -64.2265625 65.0625 C-63.89720703 64.46501953 -63.56785156 63.86753906 -63.22851562 63.25195312 C-62.42132983 61.78966002 -61.60601333 60.3318601 -60.7890625 58.875 C-60.1290625 58.875 -59.4690625 58.875 -58.7890625 58.875 C-58.6653125 59.761875 -58.5415625 60.64875 -58.4140625 61.5625 C-55.90448607 66.67817503 -51.98176759 67.94314929 -46.7890625 69.875 C-33.91524353 74.03321026 -19.568322 74.84908101 -6.7890625 69.875 C-3.24968542 67.7798515 -1.12291517 65.876558 0.2109375 61.875 C0.60565842 58.81309343 0.69790551 55.92961754 0.2109375 52.875 C-5.19014451 46.67964123 -13.11123636 46.47118592 -20.7890625 45.875 C-23.48659039 45.7494936 -26.18303851 45.66328759 -28.88232422 45.58520508 C-53.95297841 44.81728702 -53.95297841 44.81728702 -62.7890625 35.875 C-67.20335447 30.46749234 -67.34632948 25.79771911 -67.109375 18.90234375 C-66.43740318 12.55139061 -63.50809233 8.96482585 -58.7890625 4.875 C-41.83246811 -7.62909696 -19.26488517 -5.71988343 0 0 Z " fill="#070707" transform="translate(982.7890625,587.125)"/>
<path d="M0 0 C0.66 0 1.32 0 2 0 C2 5.28 2 10.56 2 16 C1.01 15.34 0.02 14.68 -1 14 C-3.72847523 13.67093706 -3.72847523 13.67093706 -6.84838867 13.68115234 C-8.0494072 13.66128265 -9.25042572 13.64141296 -10.48783875 13.62094116 C-11.78478165 13.60938995 -13.08172455 13.59783875 -14.41796875 13.5859375 C-15.75890801 13.56722623 -17.0998355 13.54765284 -18.44075012 13.5272522 C-21.9670009 13.47592035 -25.49328987 13.43630052 -29.01971436 13.39910889 C-32.61935846 13.35907568 -36.21884614 13.3080871 -39.81835938 13.2578125 C-46.87884701 13.16000488 -53.93920874 13.08050107 -61 13 C-61 21.91 -61 30.82 -61 40 C-47.47 39.67 -33.94 39.34 -20 39 C-19.505 38.01 -19.505 38.01 -19 37 C-18.34 37 -17.68 37 -17 37 C-17 42.28 -17 47.56 -17 53 C-17.99 52.34 -18.98 51.68 -20 51 C-21.95520809 50.67508765 -21.95520809 50.67508765 -24.10424805 50.68115234 C-24.92487228 50.66128265 -25.74549652 50.64141296 -26.59098816 50.62094116 C-27.9129998 50.60361435 -27.9129998 50.60361435 -29.26171875 50.5859375 C-30.62040825 50.55688828 -30.62040825 50.55688828 -32.00654602 50.5272522 C-34.90010151 50.46746458 -37.7936968 50.42107432 -40.6875 50.375 C-42.64910591 50.33681946 -44.61069506 50.29776769 -46.57226562 50.2578125 C-51.38142334 50.1601233 -56.19040226 50.08054857 -61 50 C-61 59.24 -61 68.48 -61 78 C-40.87 77.67 -20.74 77.34 0 77 C0.99 75.02 0.99 75.02 2 73 C2.66 73 3.32 73 4 73 C4 78.94 4 84.88 4 91 C3.34 91 2.68 91 2 91 C1.67 90.34 1.34 89.68 1 89 C-24.08 88.67 -49.16 88.34 -75 88 C-75 87.34 -75 86.68 -75 86 C-74.01 85.505 -74.01 85.505 -73 85 C-72.67 58.6 -72.34 32.2 -72 5 C-72.99 5 -73.98 5 -75 5 C-75 4.34 -75 3.68 -75 3 C-50.58 2.67 -26.16 2.34 -1 2 C-0.67 1.34 -0.34 0.68 0 0 Z " fill="#000000" transform="translate(690,582)"/>
<path d="M0 0 C7.06243272 -0.09221893 14.12274592 -0.17174398 21.18530273 -0.21972656 C23.58381256 -0.23974509 25.98227418 -0.26696833 28.38061523 -0.30175781 C31.84370882 -0.35070613 35.3061528 -0.37306731 38.76953125 -0.390625 C39.82831985 -0.41127014 40.88710846 -0.43191528 41.97798157 -0.45318604 C50.50536235 -0.45571128 57.86653228 1.30059251 65.0625 6 C68.60855579 9.66044468 69.32719284 12.75783651 69.4375 17.8125 C69.32894209 22.50334448 69.01065099 25.9468666 65.76815796 29.47735596 C58.79558638 35.48176553 49.93625536 35.55009739 41.2109375 35.390625 C40.02650055 35.38496521 38.8420636 35.37930542 37.62173462 35.37347412 C33.87239608 35.351246 30.12404527 35.30107297 26.375 35.25 C23.81902431 35.22991757 21.2630335 35.21166987 18.70703125 35.1953125 C12.47067589 35.15484296 6.23643165 35.07652063 0 35 C0 23.45 0 11.9 0 0 Z " fill="#F9F9F9" transform="translate(553,428)"/>
<path d="M0 0 C7.6873031 -0.11500287 15.371603 -0.21448695 23.05908203 -0.2746582 C25.67214084 -0.29974952 28.28512982 -0.33383029 30.89794922 -0.37719727 C34.66130841 -0.43808146 38.4237369 -0.46626517 42.1875 -0.48828125 C43.34926758 -0.51408768 44.51103516 -0.5398941 45.70800781 -0.56648254 C54.02074181 -0.5693351 59.0076899 1.13392895 64.9765625 6.9140625 C67.67417708 12.41225405 66.66030583 19.90903155 64.875 25.5625 C61.91894271 29.40537448 58.56674599 31.47775134 54 33 C52.23591872 33.08799471 50.46866234 33.11764257 48.70239258 33.11352539 C47.62149857 33.11344986 46.54060455 33.11337433 45.42695618 33.11329651 C44.26125595 33.10813522 43.09555573 33.10297394 41.89453125 33.09765625 C40.70018967 33.0962413 39.50584808 33.09482635 38.27531433 33.09336853 C34.45435092 33.0877635 30.63344575 33.07521011 26.8125 33.0625 C24.22461022 33.05748565 21.63671952 33.05292263 19.04882812 33.04882812 C12.69917817 33.03864261 6.34965441 33.01906803 0 33 C0 22.11 0 11.22 0 0 Z " fill="#FCFCFC" transform="translate(508,581)"/>
<path d="M0 0 C7.6873031 -0.11500287 15.371603 -0.21448695 23.05908203 -0.2746582 C25.67214084 -0.29974952 28.28512982 -0.33383029 30.89794922 -0.37719727 C34.66130841 -0.43808146 38.4237369 -0.46626517 42.1875 -0.48828125 C43.34926758 -0.51408768 44.51103516 -0.5398941 45.70800781 -0.56648254 C52.67189459 -0.56887224 57.73438483 0.17581976 63 5 C65.97661423 9.46492134 65.49203681 13.76442084 65 19 C63.01832226 23.90204493 59.41840715 26.85932707 54.66975403 29.09909058 C51.82072439 30.06049662 49.65710444 30.24164041 46.65893555 30.22705078 C45.09788338 30.22682419 45.09788338 30.22682419 43.5052948 30.22659302 C41.83784966 30.21110916 41.83784966 30.21110916 40.13671875 30.1953125 C38.98959915 30.1924826 37.84247955 30.18965271 36.66059875 30.18673706 C33.00279232 30.17555697 29.34523222 30.15045595 25.6875 30.125 C23.20508167 30.11496741 20.72265949 30.10584205 18.24023438 30.09765625 C12.15998537 30.07732777 6.0802679 30.03817399 0 30 C0 20.1 0 10.2 0 0 Z " fill="#FDFDFD" transform="translate(553,386)"/>
<path d="M0 0 C5.28 0 10.56 0 16 0 C15.67 0.66 15.34 1.32 15 2 C14.87879701 4.30724017 14.8224643 6.61796828 14.79467773 8.92822266 C14.77982834 9.99667671 14.77982834 9.99667671 14.76467896 11.0867157 C14.73304142 13.44579726 14.7082977 15.80489897 14.68359375 18.1640625 C14.66302616 19.79788747 14.64202974 21.43170708 14.62062073 23.06552124 C14.56537987 27.36942216 14.5159795 31.67337126 14.46777344 35.97735596 C14.4175731 40.36776018 14.36187939 44.75809429 14.30664062 49.1484375 C14.19903442 57.76556575 14.09759494 66.38275258 14 75 C21.52795021 74.93885135 29.05559372 74.861791 36.58315849 74.76428509 C40.07836487 74.7195139 43.57345288 74.68027331 47.06884766 74.65356445 C51.085264 74.6226341 55.10104367 74.56784357 59.1171875 74.51171875 C60.37554413 74.50532883 61.63390076 74.4989389 62.9303894 74.49235535 C64.09144196 74.47256119 65.25249451 74.45276703 66.44873047 74.43237305 C67.47465302 74.42126999 68.50057556 74.41016693 69.55758667 74.39872742 C70.36358307 74.26714737 71.16957947 74.13556732 72 74 C72.99 72.515 72.99 72.515 74 71 C74.66 71 75.32 71 76 71 C76 76.61 76 82.22 76 88 C74.02 87.01 74.02 87.01 72 86 C68.68414533 85.67179618 68.68414533 85.67179618 64.93652344 85.68115234 C64.23368225 85.67110672 63.53084106 85.6610611 62.80670166 85.65071106 C60.49093418 85.61989881 58.17528221 85.60284964 55.859375 85.5859375 C54.25082405 85.56722425 52.6422829 85.54765071 51.03375244 85.5272522 C46.8055194 85.47594149 42.57725454 85.43631015 38.34887695 85.39910889 C34.03198379 85.35906256 29.71522289 85.30797309 25.3984375 85.2578125 C16.93238204 85.16106578 8.46626108 85.07665706 0 85 C0 84.34 0 83.68 0 83 C0.66 83 1.32 83 2 83 C1.89260699 72.47338677 1.77999584 61.94684368 1.66066074 51.42035866 C1.60541826 46.53286651 1.55199614 41.64536838 1.50268555 36.7578125 C1.45506155 32.04398654 1.40271945 27.33023473 1.34705925 22.61649704 C1.32662678 20.81512668 1.30791519 19.01373599 1.29092598 17.21232986 C1.26690169 14.69567741 1.2368445 12.17916577 1.20532227 9.66259766 C1.1995668 8.91237839 1.19381134 8.16215912 1.18788147 7.38920593 C1.19676399 3.56772926 1.19676399 3.56772926 0 0 Z " fill="#040404" transform="translate(662,390)"/>
<path d="M0 0 C0.66 0 1.32 0 2 0 C4.28327842 5.2307419 6.56181756 10.46351203 8.8359375 15.69824219 C9.61066985 17.47973663 10.38670751 19.26066401 11.1640625 21.04101562 C12.27945933 23.59618489 13.39018717 26.15333885 14.5 28.7109375 C14.84998047 29.50994476 15.19996094 30.30895203 15.56054688 31.13217163 C18 36.77225659 18 36.77225659 18 39 C7.11 39 -3.78 39 -15 39 C-14.14850325 33.89101948 -12.87270716 29.86011031 -10.83984375 25.1953125 C-10.53051407 24.4713327 -10.22118439 23.74735291 -9.90248108 23.00143433 C-8.92031138 20.70658969 -7.92907087 18.41579591 -6.9375 16.125 C-6.26697361 14.56275933 -5.59704535 13.00026178 -4.92773438 11.4375 C-3.29206294 7.6219927 -1.64824905 3.81008983 0 0 Z " fill="#F6F6F6" transform="translate(746,598)"/>
<path d="M0 0 C0.66 0.33 1.32 0.66 2 1 C2.59423828 3.31665039 2.59423828 3.31665039 3.0703125 6.34765625 C3.24433594 7.42724609 3.41835938 8.50683594 3.59765625 9.61914062 C3.77167969 10.75544922 3.94570313 11.89175781 4.125 13.0625 C4.30675781 14.20267578 4.48851562 15.34285156 4.67578125 16.51757812 C5.1251386 19.34379935 5.5635812 22.17175194 6 25 C11.28 25.66 16.56 26.32 22 27 C22.495 28.485 22.495 28.485 23 30 C21.95199219 30.18433594 20.90398437 30.36867188 19.82421875 30.55859375 C12.37085602 31.81368446 12.37085602 31.81368446 6.37109375 35.8828125 C5.54058084 38.30912771 5.20412732 40.44263126 5 43 C4.88011719 44.0003125 4.76023437 45.000625 4.63671875 46.03125 C4.35248848 48.68863182 4.14462576 51.33190417 4 54 C2.515 54.495 2.515 54.495 1 55 C-0.98449429 48.04104003 -2.66006673 41.11195351 -4 34 C-8.95 33.34 -13.9 32.68 -19 32 C-19.33 31.01 -19.66 30.02 -20 29 C-14.35199888 27.1582605 -8.91492272 26.45224761 -3 26 C-2.90912109 24.2984375 -2.90912109 24.2984375 -2.81640625 22.5625 C-2.73191506 21.04165865 -2.64727149 19.52082575 -2.5625 18 C-2.52318359 17.25621094 -2.48386719 16.51242187 -2.44335938 15.74609375 C-1.64642137 1.64642137 -1.64642137 1.64642137 0 0 Z " fill="#FF7557" transform="translate(319,480)"/>
<path d="M0 0 C0.66 0.33 1.32 0.66 2 1 C3.65155878 6.89259861 4.27098599 12.90281525 4 19 C5.216875 18.95875 6.43375 18.9175 7.6875 18.875 C11.21894127 18.86245492 13.80003566 19.40001783 17 21 C16.67 21.66 16.34 22.32 16 23 C13.71484375 23.6328125 13.71484375 23.6328125 10.9375 24.125 C10.01839844 24.29257812 9.09929687 24.46015625 8.15234375 24.6328125 C7.44207031 24.75398437 6.73179687 24.87515625 6 25 C4.29915181 30.32932432 3.47986031 35.43109483 3 41 C1.515 40.505 1.515 40.505 0 40 C-0.33776684 38.2508503 -0.67003671 36.50063855 -1 34.75 C-1.185625 33.77546875 -1.37125 32.8009375 -1.5625 31.796875 C-2 29 -2 29 -2 25 C-5.96 24.67 -9.92 24.34 -14 24 C-14 23.01 -14 22.02 -14 21 C-12.7625 20.67 -11.525 20.34 -10.25 20 C-9.55390625 19.814375 -8.8578125 19.62875 -8.140625 19.4375 C-6 19 -6 19 -2 19 C-1.90912109 17.06833984 -1.90912109 17.06833984 -1.81640625 15.09765625 C-1.73201753 13.41925841 -1.6473687 11.74087364 -1.5625 10.0625 C-1.50352539 8.78729492 -1.50352539 8.78729492 -1.44335938 7.48632812 C-1.40146484 6.67744141 -1.35957031 5.86855469 -1.31640625 5.03515625 C-1.27974854 4.2862915 -1.24309082 3.53742676 -1.20532227 2.76586914 C-1 1 -1 1 0 0 Z " fill="#FF785A" transform="translate(359,516)"/>
<path d="M0 0 C0 0.99 0 1.98 0 3 C-0.82242188 3.4125 -1.64484375 3.825 -2.4921875 4.25 C-27.84153357 17.36374947 -43.05716224 38.11724003 -54 64 C-56.01859348 58.6468945 -53.0907824 53.80220305 -50.89355469 48.87353516 C-42.52760146 31.33246274 -21.89536408 0 0 0 Z " fill="#FFF2F0" transform="translate(190,395)"/>
<path d="M0 0 C4.33166002 0.01037757 8.66332615 0.01482801 12.99499512 0.01983643 C21.43771989 0.03044197 29.88041542 0.04742438 38.32312012 0.06866455 C38.81812012 1.05866455 38.81812012 1.05866455 39.32312012 2.06866455 C7.65113778 2.96885847 -23.99302165 3.19488733 -55.67687988 3.06866455 C-55.67687988 2.40866455 -55.67687988 1.74866455 -55.67687988 1.06866455 C-37.135312 -0.25637337 -18.57617432 -0.04931728 0 0 Z " fill="#FF8166" transform="translate(134.6768798828125,702.9313354492188)"/>
<path d="M0 0 C0.66 0.33 1.32 0.66 2 1 C0.87799645 4.36601064 -0.00415203 5.06243251 -2.6875 7.25 C-10.97790017 14.32861262 -17.13066687 22.74261689 -21 33 C-21.33 33 -21.66 33 -22 33 C-21.70521811 20.02959679 -10.71851973 9.5333008 -2 1 C-1.34 0.67 -0.68 0.34 0 0 Z " fill="#FFECE7" transform="translate(176,413)"/>
<path d="M0 0 C0.33 0.66 0.66 1.32 1 2 C-1.51979835 3.89721196 -4.04103033 5.79251002 -6.5625 7.6875 C-7.26697266 8.21794922 -7.97144531 8.74839844 -8.69726562 9.29492188 C-13.08854877 12.59344332 -17.51813178 15.82558874 -22 19 C-22.66 18.67 -23.32 18.34 -24 18 C-24 17.34 -24 16.68 -24 16 C-22.55053711 14.73486328 -22.55053711 14.73486328 -20.52734375 13.3203125 C-19.79193359 12.80339844 -19.05652344 12.28648437 -18.29882812 11.75390625 C-17.51958984 11.21636719 -16.74035156 10.67882812 -15.9375 10.125 C-15.18533203 9.59519531 -14.43316406 9.06539062 -13.65820312 8.51953125 C-9.22398822 5.42517868 -4.73807817 2.60499915 0 0 Z " fill="#FFEEEA" transform="translate(351,662)"/>
<path d="M0 0 C0.66 0.33 1.32 0.66 2 1 C0.93498655 3.61412393 -0.11274938 5.10630656 -2.1875 7.0625 C-7.78780552 12.44548023 -12.13260326 19.25049494 -13 27 C-14.125 25.375 -14.125 25.375 -15 23 C-13.26275709 13.87947471 -6.74298737 6.02479936 0 0 Z " fill="#FF7C5F" transform="translate(122,625)"/>
<path d="M0 0 C0.66 0 1.32 0 2 0 C1.29563551 3.34181819 0.06738162 6.22230664 -1.375 9.3125 C-3.31906391 13.51618602 -5.19858662 17.73349462 -7 22 C-8.60019088 18.00928005 -7.30230373 15.42095611 -5.75 11.5625 C-5.31171875 10.45003906 -4.8734375 9.33757812 -4.421875 8.19140625 C-3.12418617 5.27873654 -1.8203671 2.61800107 0 0 Z " fill="#FFEAE6" transform="translate(143,437)"/>
<path d="M0 0 C-1.56583596 4.03721561 -4.44173865 6.47070582 -7.625 9.25 C-8.140625 9.70890625 -8.65625 10.1678125 -9.1875 10.640625 C-10.4534602 11.76592296 -11.72607942 12.88372177 -13 14 C-13.66 13.67 -14.32 13.34 -15 13 C-13.4451236 8.96472554 -10.82178919 6.92491445 -7.5 4.25 C-6.5203125 3.45078125 -5.540625 2.6515625 -4.53125 1.828125 C-2 0 -2 0 0 0 Z " fill="#FFE7E1" transform="translate(366,664)"/>
<path d="M0 0 C0.66 0.33 1.32 0.66 2 1 C-0.05576732 2.79992512 -2.11896218 4.58985409 -4.1875 6.375 C-5.0547168 7.13683594 -5.0547168 7.13683594 -5.93945312 7.9140625 C-9.14626695 10.66793652 -11.89323459 12.71615243 -16 14 C-14.46642041 9.37766153 -10.71292205 7.3643469 -6.875 4.75 C-6.21628906 4.29109375 -5.55757813 3.8321875 -4.87890625 3.359375 C-3.2579995 2.23178769 -1.62970314 1.11483609 0 0 Z " fill="#FFEDE9" transform="translate(354,667)"/>
<path d="M0 0 C1.65 0.33 3.3 0.66 5 1 C4.67 2.65 4.34 4.3 4 6 C2.35 5.67 0.7 5.34 -1 5 C-0.67 3.35 -0.34 1.7 0 0 Z " fill="#FF7759" transform="translate(291,489)"/>
<path d="M0 0 C2.0625 0.4375 2.0625 0.4375 4 1 C3.67 2.65 3.34 4.3 3 6 C1.68 5.67 0.36 5.34 -1 5 C-1 1 -1 1 0 0 Z " fill="#FF7E62" transform="translate(368,471)"/>
<path d="M0 0 C0.99 0.33 1.98 0.66 3 1 C2.2884375 2.051875 2.2884375 2.051875 1.5625 3.125 C-0.08739857 6.16081337 -0.60368464 8.59168786 -1 12 C-2.125 10.375 -2.125 10.375 -3 8 C-2.25465624 5.13329322 -1.32208367 2.64416734 0 0 Z " fill="#FF886E" transform="translate(110,640)"/>
<path d="M0 0 C2.3125 -0.1875 2.3125 -0.1875 5 0 C5.99 0.99 6.98 1.98 8 3 C3.545 3.495 3.545 3.495 -1 4 C-0.67 2.68 -0.34 1.36 0 0 Z " fill="#FF8166" transform="translate(49,673)"/>
</svg>
